<?xml version="1.0" encoding="utf-8"?>
<!-- Generator: Adobe Illustrator 16.0.0, SVG Export Plug-In . SVG Version: 6.00 Build 0)  -->
<!DOCTYPE svg PUBLIC "-//W3C//DTD SVG 1.1//EN" "http://www.w3.org/Graphics/SVG/1.1/DTD/svg11.dtd">
<svg version="1.1" id="Layer_1" xmlns="http://www.w3.org/2000/svg" xmlns:xlink="http://www.w3.org/1999/xlink" x="0px" y="0px"
	 width="497.17px" height="136.321px" viewBox="0 0 497.17 136.321" enable-background="new 0 0 497.17 136.321"
	 xml:space="preserve">
<g>
	<defs>
		<rect id="SVGID_1_" x="26.34" y="18.501" width="434.729" height="78.649"/>
	</defs>
	<clipPath id="SVGID_2_">
		<use xlink:href="#SVGID_1_"  overflow="visible"/>
	</clipPath>
	<g clip-path="url(#SVGID_2_)">
		<path fill="#231F20" d="M159.086,80.327V45.048h-14.399v-6.72h36.479v6.72h-13.859v35.278H159.086z"/>
		<path fill="#231F20" d="M217.706,72.827c0,0-4.56,7.86-15.239,7.86c-11.58,0-19.619-7.14-19.619-21.3
			c0-14.1,7.2-21.419,18.599-21.419c14.819,0,16.139,12.42,16.139,14.64l-7.68,1.26c0,0-0.24-8.64-8.399-8.64
			c-5.76,0-10.14,4.38-10.14,14.159c0,9.96,5.58,14.04,11.52,14.04c6.18,0,9.959-5.7,9.959-5.7L217.706,72.827z"/>
	</g>
</g>
<path fill="#231F20" d="M248.966,80.327c0,0-0.42,0.12-1.08,0.12c-1.86,0-3.6-1.261-3.6-4.38v-1.92
	c-0.12,0.239-2.16,6.539-9.9,6.539c-5.939,0-11.58-4.199-11.58-14.639c0-10.74,5.34-15,11.7-15c7.02,0,9.479,4.8,9.66,5.16V36.768
	h2.28v38.459c0,2.159,0.6,3.239,2.52,3.239V80.327z M244.166,59.567c-0.06-0.239-2.1-6.539-9.42-6.539
	c-5.28,0-9.719,4.199-9.719,12.959c0,8.58,4.439,12.72,9.719,12.72c7.92,0,9.36-7.859,9.42-7.92V59.567z M280.885,80.327
	c0,0-0.42,0.12-1.079,0.12c-1.92,0-3.601-1.261-3.601-4.38v-1.86c-0.18,0.48-2.399,6.479-9.959,6.479
	c-5.88,0-11.22-4.199-11.22-14.639c0-10.74,4.979-15,11.34-15c7.14,0,9.72,5.04,9.839,5.22v-4.859h2.16v23.879
	c0,2.1,0.6,3.18,2.52,3.18V80.327z M276.086,59.567c-0.061-0.239-2.1-6.539-9.42-6.539c-5.279,0-9.42,4.199-9.42,12.959
	c0,8.58,4.141,12.72,9.42,12.72c7.92,0,9.359-7.92,9.42-7.92V59.567z M305.965,77.386c0,0-2.52,3.3-7.079,3.3
	c-5.939,0-8.52-3.119-8.52-9.299v-18.06h-4.68v-1.92h4.68v-9h2.34v9h12.12v1.92h-12.12v17.999c0,4.8,1.8,7.319,6.36,7.319
	c3.84,0,5.999-2.88,5.999-2.88L305.965,77.386z M336.026,80.327c0,0-0.42,0.12-1.08,0.12c-1.92,0-3.6-1.261-3.6-4.38v-1.86
	c-0.181,0.48-2.4,6.479-9.961,6.479c-5.879,0-11.219-4.199-11.219-14.639c0-10.74,4.979-15,11.34-15c7.139,0,9.719,5.04,9.84,5.22
	v-4.859h2.159v23.879c0,2.1,0.601,3.18,2.521,3.18V80.327z M331.225,59.567c-0.06-0.239-2.1-6.539-9.419-6.539
	c-5.28,0-9.42,4.199-9.42,12.959c0,8.58,4.14,12.72,9.42,12.72c7.919,0,9.359-7.92,9.419-7.92V59.567z"/>
<g>
	<defs>
		<rect id="SVGID_3_" x="26.34" y="18.501" width="434.729" height="78.649"/>
	</defs>
	<clipPath id="SVGID_4_">
		<use xlink:href="#SVGID_3_"  overflow="visible"/>
	</clipPath>
	<g clip-path="url(#SVGID_4_)">
		<path fill="#231F20" d="M352.105,62.387v-6h4.979c2.461,0,5.58-1.8,5.58-5.34c0-3.18-2.46-5.879-6.84-5.879
			c-4.199,0-6.18,3.18-6.18,5.1l-7.92-2.7c0,0,2.16-9.6,15-9.6c10.26,0,14.879,6.18,14.879,12.18c0,6.659-6.359,8.46-6.959,8.579
			c0.359,0.12,8.159,1.86,8.159,10.14c0,7.44-6.42,11.82-16.319,11.82c-13.979,0-15.779-8.58-15.779-8.58l5.76-3.84
			c0,0,2.46,5.52,9.539,5.52c4.98,0,7.86-1.92,7.86-5.76c0-4.02-4.14-5.64-6.78-5.64H352.105z"/>
		<path fill="#231F20" d="M378.505,59.927c0-14.159,5.76-21.959,17.279-21.959c6.72,0,10.8,2.82,13.02,5.88l-6.18,5.16
			c-0.96-1.561-3-3.54-6.84-3.54c-5.46,0-8.7,3.6-9.239,11.699c0.899-0.66,4.68-3.779,9.84-3.779
			c8.279,0,14.519,5.279,14.519,13.379c0,7.8-4.919,13.92-15.359,13.92C384.265,80.687,378.505,73.367,378.505,59.927z
			 M395.485,73.487c4.56,0,7.439-2.58,7.439-6.72c0-3.84-2.58-6.18-7.5-6.18c-4.56,0-7.619,3.06-8.639,3.78
			C387.504,69.887,390.924,73.487,395.485,73.487z"/>
		<path fill="#231F20" d="M416.125,59.387c0-12.779,5.279-21.419,16.439-21.419c11.459,0,16.919,8.64,16.919,21.419
			s-5.399,21.3-16.919,21.3C421.345,80.687,416.125,72.167,416.125,59.387z M441.325,59.387c0-9.479-2.7-14.399-8.76-14.399
			c-5.82,0-8.46,4.92-8.46,14.399c0,9.42,2.64,14.279,8.46,14.279C438.625,73.667,441.325,68.807,441.325,59.387z"/>
	</g>
	<path clip-path="url(#SVGID_4_)" fill="#E91B2C" d="M61.375,50.311c3.805,0,6.89-3.085,6.89-6.89s-3.085-6.89-6.89-6.89
		s-6.89,3.085-6.89,6.89S57.57,50.311,61.375,50.311"/>
	<path clip-path="url(#SVGID_4_)" fill="#FCB614" d="M80.223,43.773c4.612,0,8.352-3.739,8.352-8.353
		c0-4.611-3.74-8.351-8.352-8.351c-4.612,0-8.352,3.739-8.352,8.351C71.871,40.034,75.611,43.773,80.223,43.773"/>
	<path clip-path="url(#SVGID_4_)" fill="#009AA4" d="M107.07,46.34c7.687,0,13.919-6.231,13.919-13.92
		c0-7.687-6.232-13.919-13.919-13.919S93.151,24.734,93.151,32.42C93.151,40.109,99.383,46.34,107.07,46.34"/>
	<path clip-path="url(#SVGID_4_)" fill="#009AA4" d="M102.07,67.548c5.125,0,9.279-4.155,9.279-9.28
		c0-5.124-4.154-9.279-9.279-9.279s-9.279,4.155-9.279,9.279C92.791,63.393,96.945,67.548,102.07,67.548"/>
	<path clip-path="url(#SVGID_4_)" fill="#E91B2C" d="M40.375,97.15c7.751,0,14.035-6.283,14.035-14.034
		c0-7.752-6.284-14.035-14.035-14.035S26.34,75.364,26.34,83.116C26.34,90.867,32.625,97.15,40.375,97.15"/>
	<path clip-path="url(#SVGID_4_)" fill="#FCB614" d="M73.223,94.035c7.687,0,13.919-6.231,13.919-13.919S80.91,66.197,73.223,66.197
		s-13.919,6.231-13.919,13.919S65.536,94.035,73.223,94.035"/>
	<path clip-path="url(#SVGID_4_)" fill="#009AA4" d="M99.07,84.075c3.844,0,6.96-3.115,6.96-6.959s-3.116-6.96-6.96-6.96
		c-3.844,0-6.96,3.116-6.96,6.96S95.226,84.075,99.07,84.075"/>
	<path clip-path="url(#SVGID_4_)" fill="#E91B2C" d="M52.375,68.968c4.805,0,8.7-3.896,8.7-8.699c0-4.806-3.895-8.7-8.7-8.7
		s-8.7,3.895-8.7,8.7C43.675,65.073,47.57,68.968,52.375,68.968"/>
	<path clip-path="url(#SVGID_4_)" fill="#FCB614" d="M77.223,64.548c5.125,0,9.279-4.155,9.279-9.28
		c0-5.124-4.154-9.279-9.279-9.279s-9.279,4.155-9.279,9.279C67.944,60.393,72.098,64.548,77.223,64.548"/>
</g>
<g>
	<defs>
		<rect id="SVGID_5_" x="146" y="92.491" width="298.857" height="23.378"/>
	</defs>
	<clipPath id="SVGID_6_">
		<use xlink:href="#SVGID_5_"  overflow="visible"/>
	</clipPath>
	<g clip-path="url(#SVGID_6_)">
		<path fill="#231F20" d="M155.729,106.102c0-3.516,1.975-5.002,4.216-5.002c2.227,0,4.202,1.486,4.202,5.002
			s-1.975,4.973-4.202,4.973C157.717,111.075,155.729,109.618,155.729,106.102z M162.844,106.102c0-2.887-1.401-3.895-2.899-3.895
			c-1.513,0-2.9,1.008-2.9,3.895c0,2.828,1.387,3.865,2.9,3.865C161.458,109.967,162.844,108.93,162.844,106.102z"/>
		<path fill="#231F20" d="M166.074,110.991v-9.807h3.124c2.213,0,3.558,1.051,3.558,3.18c0,2.115-1.415,3.082-3.404,3.082h-2.003
			v3.545H166.074z M169.142,106.381c1.541,0,2.311-0.715,2.311-2.018c0-1.26-0.756-2.1-2.353-2.1h-1.751v4.117H169.142z"/>
		<path fill="#231F20" d="M174.418,110.991v-9.807h5.869v1.08h-4.594v3.318h3.824v1.08h-3.824v3.25h4.594v1.078H174.418z"/>
		<path fill="#231F20" d="M187.847,110.991l-4.426-7.578v7.578h-1.275v-9.807h1.429l4.426,7.762v-7.762h1.275v9.807H187.847z"/>
		<path fill="#231F20" d="M197.015,110.991v-8.727h-3.46v-1.08h8.11v1.08h-3.39v8.727H197.015z"/>
		<path fill="#231F20" d="M211.06,110.977c0,0-0.35,0.055-0.756,0.055c-2.633,0-2.157-4.02-4.314-4.02h-1.639v3.979h-1.275v-9.807
			h3.208c2.157,0,3.417,0.869,3.417,2.943c0,1.441-0.91,2.254-1.877,2.52c1.247,0.688,1.415,3.404,2.857,3.404h0.378V110.977z
			 M206.102,106.018c1.303,0,2.297-0.645,2.297-1.85c0-1.162-0.77-1.904-2.171-1.904h-1.877v3.754H206.102z"/>
		<path fill="#231F20" d="M217.737,108.272h-3.894l-0.98,2.719h-1.317l3.614-9.807h1.275l3.614,9.807h-1.316L217.737,108.272z
			 M214.235,107.223h3.124l-1.569-4.287L214.235,107.223z"/>
		<path fill="#231F20" d="M221.556,110.991v-9.807h2.591c2.591,0,4.763,1.443,4.763,5.029c0,3.391-1.849,4.777-4.286,4.777H221.556z
			 M224.609,109.913c1.793,0,2.998-1.219,2.998-3.713c0-2.648-1.331-3.936-3.474-3.936h-1.303v7.648H224.609z"/>
		<path fill="#231F20" d="M230.837,110.991v-9.807h5.869v1.08h-4.594v3.318h3.824v1.08h-3.824v3.25h4.594v1.078H230.837z"/>
		<path fill="#231F20" d="M246.814,108.272h-3.894l-0.98,2.719h-1.317l3.614-9.807h1.275l3.614,9.807h-1.316L246.814,108.272z
			 M243.312,107.223h3.124l-1.569-4.287L243.312,107.223z"/>
		<path fill="#231F20" d="M256.334,110.991l-4.427-7.578v7.578h-1.275v-9.807h1.429l4.427,7.762v-7.762h1.273v9.807H256.334z"/>
		<path fill="#231F20" d="M260.167,110.991v-9.807h2.592c2.592,0,4.763,1.443,4.763,5.029c0,3.391-1.849,4.777-4.286,4.777H260.167z
			 M263.221,109.913c1.793,0,2.997-1.219,2.997-3.713c0-2.648-1.331-3.936-3.474-3.936h-1.303v7.648H263.221z"/>
		<path fill="#231F20" d="M280.008,109.336c0,0-1.036,1.738-3.375,1.738c-2.508,0-4.371-1.514-4.371-4.959
			c0-3.432,1.723-5.016,4.16-5.016c3.208,0,3.502,2.803,3.502,3.125l-1.176,0.209c0,0-0.112-2.227-2.312-2.227
			c-1.569,0-2.872,1.107-2.872,3.908c0,2.857,1.541,3.852,3.124,3.852c1.639,0,2.55-1.443,2.55-1.443L280.008,109.336z"/>
		<path fill="#231F20" d="M281.237,106.102c0-3.516,1.975-5.002,4.216-5.002c2.228,0,4.202,1.486,4.202,5.002
			s-1.975,4.973-4.202,4.973S281.237,109.618,281.237,106.102z M288.352,106.102c0-2.887-1.4-3.895-2.899-3.895
			c-1.513,0-2.899,1.008-2.899,3.895c0,2.828,1.387,3.865,2.899,3.865S288.352,108.93,288.352,106.102z"/>
		<path fill="#231F20" d="M292.857,103.735v7.256h-1.274v-9.807h1.358l3.222,6.809l3.236-6.809h1.288v9.807h-1.274v-7.256
			l-2.816,5.939h-0.924L292.857,103.735z"/>
		<path fill="#231F20" d="M303.09,110.991v-9.807h3.123c2.214,0,3.559,1.051,3.559,3.18c0,2.115-1.414,3.082-3.404,3.082h-2.002
			v3.545H303.09z M306.159,106.381c1.54,0,2.311-0.715,2.311-2.018c0-1.26-0.756-2.1-2.354-2.1h-1.75v4.117H306.159z"/>
		<path fill="#231F20" d="M311.434,110.991v-9.807h5.869v1.08h-4.594v3.318h3.823v1.08h-3.823v3.25h4.594v1.078H311.434z"/>
		<path fill="#231F20" d="M321.627,110.991v-8.727h-3.461v-1.08h8.111v1.08h-3.391v8.727H321.627z"/>
		<path fill="#231F20" d="M327.688,110.991v-9.807h1.274v9.807H327.688z"/>
		<path fill="#231F20" d="M333.834,110.991v-8.727h-3.459v-1.08h8.109v1.08h-3.389v8.727H333.834z"/>
		<path fill="#231F20" d="M339.895,110.991v-9.807h1.275v9.807H339.895z"/>
		<path fill="#231F20" d="M349.712,101.184h1.457l-3.614,9.807h-1.274l-3.614-9.807h1.527l2.717,8.266L349.712,101.184z"/>
		<path fill="#231F20" d="M352.663,110.991v-9.807h5.869v1.08h-4.594v3.318h3.824v1.08h-3.824v3.25h4.594v1.078H352.663z"/>
		<path fill="#231F20" d="M366.092,110.991l-4.427-7.578v7.578h-1.274v-9.807h1.428l4.428,7.762v-7.762h1.273v9.807H366.092z"/>
		<path fill="#231F20" d="M369.924,110.991v-9.807h5.869v1.08H371.2v3.318h3.824v1.08H371.2v3.25h4.594v1.078H369.924z"/>
		<path fill="#231F20" d="M383.172,103.551c0,0-0.574-1.344-2.508-1.344c-1.443,0-2.199,0.742-2.199,1.611
			c0,2.605,5.799,0.715,5.799,4.523c0,1.43-1.12,2.732-3.543,2.732c-2.942,0-3.839-1.934-3.839-1.934l0.799-0.742
			c0,0,0.925,1.568,3.04,1.568c1.387,0,2.24-0.602,2.24-1.582c0-2.76-5.799-0.729-5.799-4.553c0-1.484,1.205-2.732,3.418-2.732
			c2.871,0,3.529,1.793,3.529,1.793L383.172,103.551z"/>
		<path fill="#231F20" d="M391.684,103.551c0,0-0.574-1.344-2.508-1.344c-1.443,0-2.199,0.742-2.199,1.611
			c0,2.605,5.799,0.715,5.799,4.523c0,1.43-1.12,2.732-3.543,2.732c-2.942,0-3.839-1.934-3.839-1.934l0.799-0.742
			c0,0,0.925,1.568,3.04,1.568c1.387,0,2.24-0.602,2.24-1.582c0-2.76-5.799-0.729-5.799-4.553c0-1.484,1.205-2.732,3.418-2.732
			c2.871,0,3.529,1.793,3.529,1.793L391.684,103.551z"/>
		<path fill="#231F20" d="M397.882,110.991v-9.807h2.591c2.592,0,4.764,1.443,4.764,5.029c0,3.391-1.85,4.777-4.287,4.777H397.882z
			 M400.936,109.913c1.793,0,2.998-1.219,2.998-3.713c0-2.648-1.331-3.936-3.475-3.936h-1.303v7.648H400.936z"/>
		<path fill="#231F20" d="M412.178,108.272h-3.894l-0.98,2.719h-1.317l3.615-9.807h1.273l3.614,9.807h-1.316L412.178,108.272z
			 M408.676,107.223h3.124l-1.569-4.287L408.676,107.223z"/>
		<path fill="#231F20" d="M417.497,110.991v-8.727h-3.459v-1.08h8.109v1.08h-3.389v8.727H417.497z"/>
		<path fill="#231F20" d="M427.887,108.272h-3.895l-0.98,2.719h-1.316l3.613-9.807h1.275l3.613,9.807h-1.316L427.887,108.272z
			 M424.385,107.223h3.123l-1.568-4.287L424.385,107.223z"/>
	</g>
</g>
</svg>
